<svg xmlns="http://www.w3.org/2000/svg" width="1372" height="359" fill="none"><path fill="#141414" fill-rule="evenodd" d="M358.181 180.062c0 1.823-.027 3.64-.081 5.45h-.197l-.001.019h-86.909v-3.965h-83.859c.021-.825.031-1.653.031-2.483 0-.823-.01-1.644-.031-2.463h83.859v-3.946h.13v-.019h86.909c.099 2.456.149 4.926.149 7.407Zm-172.504-17.869 82.043-10.095.482 3.936 86.651-10.662c-.827-4.253-1.804-8.453-2.924-12.594l-85.29 10.495.482 3.936-82.438 10.144c.372 1.598.704 3.212.994 4.84Zm-4.282-15.885 78.431-19.597.957 3.848 83.208-20.79a179.7794 179.7794 0 0 0-5.538-11.8675L257.68 118.084l.957 3.847-79.068 19.757a95.731 95.731 0 0 1 1.826 4.62Zm-6.94-14.867 73.311-27.683 1.395 3.711 77.557-29.2857a180.6977 180.6977 0 0 0-7.952-10.7371l-74.128 27.9915 1.395 3.7109-74.196 28.0174c.909 1.4 1.782 2.825 2.618 4.275Zm-9.633-13.749 64.744-33.7444 1.826 3.5183 71.607-37.3214a181.3279 181.3279 0 0 0-10.244-9.1529L225.472 76.059l1.826 3.5182-65.844 34.3168a95.5207 95.5207 0 0 1 3.368 3.798Zm-15.623-14.824 58.612-37.2741 2.12 3.3483 64.697-41.1431a179.7256 179.7256 0 0 0-12.509-7.2729l-59.062 37.56 2.12 3.3483-60.307 38.3516a94.871 94.871 0 0 1 4.329 3.0819Zm-13.832-8.6847 49.129-40.2956 2.506 3.0687 55.344-45.3939a178.0848 178.0848 0 0 0-14.397-4.8063l-49.073 40.2506 2.506 3.0688-50.918 41.7638a94.4432 94.4432 0 0 1 4.903 2.3439Zm-18.342-7.1206 38.812-38.6154 2.788 2.8142 49.279-49.0291a179.7742 179.7742 0 0 0-16.26-1.9405l-42.058 41.8453 2.788 2.8142-40.972 40.7642c1.895.3931 3.77.8428 5.623 1.3471ZM95.5595 83.801l30.9395-37.495 3.05 2.5271L169.845 0c-6.117.284-12.154.874-18.097 1.7555l-32.086 38.884 3.049 2.5272-33.5107 40.6108a96.5712 96.5712 0 0 1 6.3592.0235Zm-18.5318 1.1127 23.8303-36.8899 3.322 2.1551L132.996 5.572a178.1945 178.1945 0 0 0-19.295 6.209L93.4102 43.1917l3.3218 2.155-26.4085 40.8805a94.4542 94.4542 0 0 1 6.7042-1.3135Zm-20.6162 5.7258 17.1534-32.1281 3.4891 1.8708 22.7062-42.5284a179.5505 179.5505 0 0 0-20.9755 12.0333L65.7416 54.3166l3.4891 1.8708-20.1858 37.8079a94.5634 94.5634 0 0 1 7.3666-3.3558Zm-14.7826 7.5544 7.2837-20.6863 3.7316 1.3196 14.1616-40.22a181.088 181.088 0 0 0-20.1726 18.652l-6.0877 17.2897 3.7316 1.3196-9.5335 27.0755a95.3179 95.3179 0 0 1 6.8853-4.7501ZM23.4423 112.995l3.2139-15.0186 3.8692.8316 6.4848-30.3025c-6.8222 8.6661-12.8675 17.975-18.0306 27.8211l2.8703.6169-5.9041 24.8715a95.8215 95.8215 0 0 1 7.4965-8.82ZM10.078 130.604v-19.896C5.2597 123.434 1.8379 139.25 0 154.771c2.2535-8.589 5.6727-16.705 10.078-24.167ZM.1283 203.878c1.8909 13.246 5.2187 26.028 9.8203 38.181v-14.717c-4.2604-7.261-7.5888-15.137-9.8203-23.464Zm16.4411 33.294 5.1511 24.071-2.8703.617c5.1632 9.846 11.2084 19.155 18.0306 27.821l-6.4848-30.303-3.8692.832-3.2568-15.219a95.7963 95.7963 0 0 1-6.7006-7.819Zm17.988 17.909 9.5903 27.237-3.7316 1.319 6.0878 17.29a181.0489 181.0489 0 0 0 20.1725 18.652l-14.1616-40.22-3.7316 1.32-7.3296-20.817a95.5954 95.5954 0 0 1-6.8962-4.781Zm14.2949 8.992 20.2491 37.926-3.4891 1.871 13.0431 24.429a179.5042 179.5042 0 0 0 20.9754 12.033l-22.7061-42.528-3.4891 1.871-17.203-32.221a94.58 94.58 0 0 1-7.3803-3.381Zm21.3033 7.826 26.447 40.941-3.3218 2.155 20.2912 31.41c6.27 2.419 12.709 4.497 19.295 6.209l-28.816-44.607-3.322 2.155-23.8601-36.935a94.0928 94.0928 0 0 1-6.7133-1.328Zm18.8949 2.485 33.5315 40.636-3.05 2.527 32.087 38.884a180.401 180.401 0 0 0 18.097 1.755l-40.296-48.833-3.05 2.527-30.9524-37.51c-1.1269.04-2.2588.06-3.3954.06-.9942 0-1.9848-.016-2.9717-.046Zm22.2275-1.908 40.966 40.759-2.788 2.814 42.059 41.845a179.889 179.889 0 0 0 16.26-1.94l-49.279-49.029-2.788 2.814-38.801-38.604c-1.855.503-3.732.95-5.629 1.341Zm19.086-6.105 50.889 41.74-2.506 3.068 49.073 40.251c4.887-1.403 9.689-3.009 14.397-4.806l-55.344-45.394-2.507 3.069-49.093-40.268a94.7259 94.7259 0 0 1-4.909 2.34Zm14.428-7.939 60.256 38.32-2.12 3.348 59.062 37.56a179.745 179.745 0 0 0 12.508-7.273l-64.696-41.143-2.12 3.348-58.556-37.238a95.5752 95.5752 0 0 1-4.334 3.078Zm16.607-14.101 65.769 34.278-1.826 3.518 67.283 35.068c3.531-2.921 6.948-5.975 10.245-9.153l-71.608-37.322-1.826 3.519-64.665-33.704a96.3648 96.3648 0 0 1-3.372 3.796Zm10.402-13.275 74.102 27.982-1.395 3.711 74.129 27.991c2.778-3.476 5.431-7.057 7.951-10.737l-77.556-29.286-1.395 3.711-73.215-27.646a95.3978 95.3978 0 0 1-2.621 4.274Zm7.747-14.53 78.96 19.729-.958 3.848 80.774 20.182c1.984-3.877 3.832-7.834 5.538-11.867l-83.208-20.791-.957 3.848-78.32-19.569c-.57 1.559-1.18 3.1-1.829 4.62Zm5.127-15.677 82.317 10.128-.483 3.936 85.291 10.495c1.12-4.141 2.096-8.34 2.924-12.594l-86.651-10.662-.482 3.936-81.92-10.08a95.604 95.604 0 0 1-.996 4.841Z" clip-rule="evenodd"/><path fill="#141414" d="M459.999 288.796V70.2305h80.514c48.683 0 77.082 27.1645 77.082 71.1895 0 44.026-28.399 71.19-77.082 71.19H490.27v76.186h-30.271Zm30.271-104.287h49.619c30.895 0 47.435-14.675 47.435-43.089 0-28.413-16.54-43.0883-47.435-43.0883H490.27v86.1773ZM679.197 290.669c-27.462 0-38.072-12.489-38.072-37.156V70.2305h29.022V247.581c0 12.177 3.745 17.485 14.667 17.485 2.185 0 4.369 0 6.866-.312v24.354c-3.433.937-8.114 1.561-12.483 1.561ZM751.656 292.23c-31.519 0-50.555-14.987-50.555-43.088 0-30.912 26.214-41.528 58.357-47.148l40.881-7.181v-5.621c0-24.666-11.859-32.16-32.455-32.16-20.909 0-31.519 7.494-34.016 24.979h-29.023c2.497-32.785 28.711-49.958 63.663-49.958 39.633 0 60.854 17.485 60.854 61.823v94.92h-28.087v-21.232c-11.546 15.924-27.15 24.666-49.619 24.666Zm-21.845-44.649c0 13.426 8.738 19.983 28.087 19.983 23.093 0 42.441-14.675 42.441-40.279v-9.055l-32.143 5.621c-23.405 4.059-38.385 7.181-38.385 23.73ZM914.52 292.23c-37.76 0-60.541-17.173-64.91-49.333h29.647c3.432 17.798 15.603 24.979 35.888 24.979 21.845 0 33.703-5.62 33.703-20.295 0-11.553-7.802-17.486-29.022-22.481l-13.419-3.123c-37.137-8.742-51.804-22.168-51.804-45.586 0-28.414 21.845-44.338 58.045-44.338 37.136 0 59.606 16.549 62.726 47.148h-29.646c-2.497-16.549-13.732-22.793-32.456-22.793-19.036 0-29.647 4.995-29.647 18.422 0 10.928 7.178 16.86 27.463 21.544l13.731 3.122c37.136 8.431 53.052 21.857 53.052 46.211 0 29.663-23.718 46.523-63.351 46.523ZM999.994 288.796V135.488h27.776v19.983c11.86-16.549 24.65-23.418 44.94-23.418 21.53 0 36.82 8.431 45.25 27.165 10.61-18.11 27.77-27.165 49.62-27.165 35.26 0 53.05 19.983 53.05 63.072v93.671h-29.02v-91.798c0-26.852-8.43-38.405-29.34-38.405-26.53 0-37.45 18.735-37.45 51.207v78.996h-29.02v-91.798c0-26.852-8.74-38.405-29.34-38.405-26.83 0-37.44 18.735-37.44 51.207v78.996h-29.026ZM1294.29 292.23c-31.52 0-50.55-14.987-50.55-43.088 0-30.912 26.21-41.528 58.36-47.148l40.88-7.181v-5.621c0-24.666-11.86-32.16-32.46-32.16-20.91 0-31.52 7.494-34.01 24.979h-29.03c2.5-32.785 28.71-49.958 63.67-49.958 39.63 0 60.85 17.485 60.85 61.823v94.92h-28.09v-21.232c-11.54 15.924-27.15 24.666-49.62 24.666Zm-21.84-44.649c0 13.426 8.74 19.983 28.08 19.983 23.1 0 42.45-14.675 42.45-40.279v-9.055l-32.15 5.621c-23.4 4.059-38.38 7.181-38.38 23.73Z"/></svg>