<?xml version="1.0" encoding="UTF-8" standalone="no"?>
<svg
   width="1372"
   height="358.186"
   fill="none"
   version="1.1"
   id="svg2"
   xmlns="http://www.w3.org/2000/svg"
   xmlns:svg="http://www.w3.org/2000/svg">
  <defs
     id="defs2" />
  <path
     fill="#141414"
     fill-rule="evenodd"
     d="m 358.181,180.062 c 0,1.823 -0.027,3.64 -0.081,5.45 h -0.197 l -0.001,0.019 h -86.909 v -3.965 h -83.859 c 0.021,-0.825 0.031,-1.653 0.031,-2.483 0,-0.823 -0.01,-1.644 -0.031,-2.463 h 83.859 v -3.946 h 0.13 v -0.019 h 86.909 c 0.099,2.456 0.149,4.926 0.149,7.407 z m -172.504,-17.869 82.043,-10.095 0.482,3.936 86.651,-10.662 c -0.827,-4.253 -1.804,-8.453 -2.924,-12.594 l -85.29,10.495 0.482,3.936 -82.438,10.144 c 0.372,1.598 0.704,3.212 0.994,4.84 z m -4.282,-15.885 78.431,-19.597 0.957,3.848 83.208,-20.79 a 179.7794,179.7794 0 0 0 -5.538,-11.8675 l -80.773,20.1825 0.957,3.847 -79.068,19.757 a 95.731,95.731 0 0 1 1.826,4.62 z m -6.94,-14.867 73.311,-27.683 1.395,3.711 77.557,-29.2857 a 180.6977,180.6977 0 0 0 -7.952,-10.7371 l -74.128,27.9915 1.395,3.7109 -74.196,28.0174 c 0.909,1.4 1.782,2.825 2.618,4.275 z m -9.633,-13.749 64.744,-33.7444 1.826,3.5183 71.607,-37.3214 a 181.3279,181.3279 0 0 0 -10.244,-9.1529 l -67.283,35.0674 1.826,3.5182 -65.844,34.3168 a 95.5207,95.5207 0 0 1 3.368,3.798 z m -15.623,-14.824 58.612,-37.2741 2.12,3.3483 64.697,-41.1431 a 179.7256,179.7256 0 0 0 -12.509,-7.2729 l -59.062,37.56 2.12,3.3483 -60.307,38.3516 a 94.871,94.871 0 0 1 4.329,3.0819 z m -13.832,-8.6847 49.129,-40.2956 2.506,3.0687 55.344,-45.3939 A 178.0848,178.0848 0 0 0 227.949,6.7562 l -49.073,40.2506 2.506,3.0688 -50.918,41.7638 a 94.4432,94.4432 0 0 1 4.903,2.3439 z m -18.342,-7.1206 38.812,-38.6154 2.788,2.8142 49.279,-49.0291 a 179.7742,179.7742 0 0 0 -16.26,-1.9405 l -42.058,41.8453 2.788,2.8142 -40.972,40.7642 c 1.895,0.3931 3.77,0.8428 5.623,1.3471 z M 95.5595,83.801 126.499,46.306 129.549,48.8331 169.845,0 c -6.117,0.284 -12.154,0.874 -18.097,1.7555 l -32.086,38.884 3.049,2.5272 -33.5107,40.6108 a 96.5712,96.5712 0 0 1 6.3592,0.0235 z M 77.0277,84.9137 100.858,48.0238 104.18,50.1789 132.996,5.572 a 178.1945,178.1945 0 0 0 -19.295,6.209 l -20.2908,31.4107 3.3218,2.155 -26.4085,40.8805 a 94.4542,94.4542 0 0 1 6.7042,-1.3135 z M 56.4115,90.6395 73.5649,58.5114 77.054,60.3822 99.7602,17.8538 A 179.5505,179.5505 0 0 0 78.7847,29.8871 l -13.0431,24.4295 3.4891,1.8708 -20.1858,37.8079 a 94.5634,94.5634 0 0 1 7.3666,-3.3558 z m -14.7826,7.5544 7.2837,-20.6863 3.7316,1.3196 14.1616,-40.22 a 181.088,181.088 0 0 0 -20.1726,18.652 l -6.0877,17.2897 3.7316,1.3196 -9.5335,27.0755 a 95.3179,95.3179 0 0 1 6.8853,-4.7501 z M 23.4423,112.995 26.6562,97.9764 30.5254,98.808 37.0102,68.5055 C 30.188,77.1716 24.1427,86.4805 18.9796,96.3266 l 2.8703,0.6169 -5.9041,24.8715 a 95.8215,95.8215 0 0 1 7.4965,-8.82 z M 10.078,130.604 V 110.708 C 5.2597,123.434 1.8379,139.25 0,154.771 2.2535,146.182 5.6727,138.066 10.078,130.604 Z m -9.9497,73.274 c 1.8909,13.246 5.2187,26.028 9.8203,38.181 V 227.342 C 5.6882,220.081 2.3598,212.205 0.1283,203.878 Z m 16.4411,33.294 5.1511,24.071 -2.8703,0.617 c 5.1632,9.846 11.2084,19.155 18.0306,27.821 L 30.396,259.378 26.5268,260.21 23.27,244.991 a 95.7963,95.7963 0 0 1 -6.7006,-7.819 z m 17.988,17.909 9.5903,27.237 -3.7316,1.319 6.0878,17.29 a 181.0489,181.0489 0 0 0 20.1725,18.652 l -14.1616,-40.22 -3.7316,1.32 -7.3296,-20.817 a 95.5954,95.5954 0 0 1 -6.8962,-4.781 z m 14.2949,8.992 20.2491,37.926 -3.4891,1.871 13.0431,24.429 a 179.5042,179.5042 0 0 0 20.9754,12.033 l -22.7061,-42.528 -3.4891,1.871 -17.203,-32.221 a 94.58,94.58 0 0 1 -7.3803,-3.381 z m 21.3033,7.826 26.447,40.941 -3.3218,2.155 20.2912,31.41 c 6.27,2.419 12.709,4.497 19.295,6.209 l -28.816,-44.607 -3.322,2.155 -23.8601,-36.935 a 94.0928,94.0928 0 0 1 -6.7133,-1.328 z m 18.8949,2.485 33.5315,40.636 -3.05,2.527 32.087,38.884 a 180.401,180.401 0 0 0 18.097,1.755 l -40.296,-48.833 -3.05,2.527 -30.9524,-37.51 c -1.1269,0.04 -2.2588,0.06 -3.3954,0.06 -0.9942,0 -1.9848,-0.016 -2.9717,-0.046 z m 22.2275,-1.908 40.966,40.759 -2.788,2.814 42.059,41.845 a 179.889,179.889 0 0 0 16.26,-1.94 l -49.279,-49.029 -2.788,2.814 -38.801,-38.604 c -1.855,0.503 -3.732,0.95 -5.629,1.341 z m 19.086,-6.105 50.889,41.74 -2.506,3.068 49.073,40.251 c 4.887,-1.403 9.689,-3.009 14.397,-4.806 l -55.344,-45.394 -2.507,3.069 -49.093,-40.268 a 94.7259,94.7259 0 0 1 -4.909,2.34 z m 14.428,-7.939 60.256,38.32 -2.12,3.348 59.062,37.56 a 179.745,179.745 0 0 0 12.508,-7.273 l -64.696,-41.143 -2.12,3.348 -58.556,-37.238 a 95.5752,95.5752 0 0 1 -4.334,3.078 z m 16.607,-14.101 65.769,34.278 -1.826,3.518 67.283,35.068 c 3.531,-2.921 6.948,-5.975 10.245,-9.153 l -71.608,-37.322 -1.826,3.519 -64.665,-33.704 a 96.3648,96.3648 0 0 1 -3.372,3.796 z m 10.402,-13.275 74.102,27.982 -1.395,3.711 74.129,27.991 c 2.778,-3.476 5.431,-7.057 7.951,-10.737 l -77.556,-29.286 -1.395,3.711 -73.215,-27.646 a 95.3978,95.3978 0 0 1 -2.621,4.274 z m 7.747,-14.53 78.96,19.729 -0.958,3.848 80.774,20.182 c 1.984,-3.877 3.832,-7.834 5.538,-11.867 l -83.208,-20.791 -0.957,3.848 -78.32,-19.569 c -0.57,1.559 -1.18,3.1 -1.829,4.62 z m 5.127,-15.677 82.317,10.128 -0.483,3.936 85.291,10.495 c 1.12,-4.141 2.096,-8.34 2.924,-12.594 l -86.651,-10.662 -0.482,3.936 -81.92,-10.08 a 95.604,95.604 0 0 1 -0.996,4.841 z"
     clip-rule="evenodd"
     id="path1"
     style="fill:#ffffff;fill-opacity:1" />
  <path
     fill="#141414"
     d="M 459.999,288.796 V 70.2305 h 80.514 c 48.683,0 77.082,27.1645 77.082,71.1895 0,44.026 -28.399,71.19 -77.082,71.19 H 490.27 v 76.186 z M 490.27,184.509 h 49.619 c 30.895,0 47.435,-14.675 47.435,-43.089 0,-28.413 -16.54,-43.0883 -47.435,-43.0883 H 490.27 Z m 188.927,106.16 c -27.462,0 -38.072,-12.489 -38.072,-37.156 V 70.2305 h 29.022 V 247.581 c 0,12.177 3.745,17.485 14.667,17.485 2.185,0 4.369,0 6.866,-0.312 v 24.354 c -3.433,0.937 -8.114,1.561 -12.483,1.561 z m 72.459,1.561 c -31.519,0 -50.555,-14.987 -50.555,-43.088 0,-30.912 26.214,-41.528 58.357,-47.148 l 40.881,-7.181 v -5.621 c 0,-24.666 -11.859,-32.16 -32.455,-32.16 -20.909,0 -31.519,7.494 -34.016,24.979 h -29.023 c 2.497,-32.785 28.711,-49.958 63.663,-49.958 39.633,0 60.854,17.485 60.854,61.823 v 94.92 h -28.087 v -21.232 c -11.546,15.924 -27.15,24.666 -49.619,24.666 z m -21.845,-44.649 c 0,13.426 8.738,19.983 28.087,19.983 23.093,0 42.441,-14.675 42.441,-40.279 v -9.055 l -32.143,5.621 c -23.405,4.059 -38.385,7.181 -38.385,23.73 z M 914.52,292.23 c -37.76,0 -60.541,-17.173 -64.91,-49.333 h 29.647 c 3.432,17.798 15.603,24.979 35.888,24.979 21.845,0 33.703,-5.62 33.703,-20.295 0,-11.553 -7.802,-17.486 -29.022,-22.481 l -13.419,-3.123 c -37.137,-8.742 -51.804,-22.168 -51.804,-45.586 0,-28.414 21.845,-44.338 58.045,-44.338 37.136,0 59.606,16.549 62.726,47.148 h -29.646 c -2.497,-16.549 -13.732,-22.793 -32.456,-22.793 -19.036,0 -29.647,4.995 -29.647,18.422 0,10.928 7.178,16.86 27.463,21.544 l 13.731,3.122 c 37.136,8.431 53.052,21.857 53.052,46.211 0,29.663 -23.718,46.523 -63.351,46.523 z m 85.474,-3.434 V 135.488 h 27.776 v 19.983 c 11.86,-16.549 24.65,-23.418 44.94,-23.418 21.53,0 36.82,8.431 45.25,27.165 10.61,-18.11 27.77,-27.165 49.62,-27.165 35.26,0 53.05,19.983 53.05,63.072 v 93.671 h -29.02 v -91.798 c 0,-26.852 -8.43,-38.405 -29.34,-38.405 -26.53,0 -37.45,18.735 -37.45,51.207 v 78.996 h -29.02 v -91.798 c 0,-26.852 -8.74,-38.405 -29.34,-38.405 -26.83,0 -37.44,18.735 -37.44,51.207 v 78.996 z m 294.296,3.434 c -31.52,0 -50.55,-14.987 -50.55,-43.088 0,-30.912 26.21,-41.528 58.36,-47.148 l 40.88,-7.181 v -5.621 c 0,-24.666 -11.86,-32.16 -32.46,-32.16 -20.91,0 -31.52,7.494 -34.01,24.979 h -29.03 c 2.5,-32.785 28.71,-49.958 63.67,-49.958 39.63,0 60.85,17.485 60.85,61.823 v 94.92 h -28.09 v -21.232 c -11.54,15.924 -27.15,24.666 -49.62,24.666 z m -21.84,-44.649 c 0,13.426 8.74,19.983 28.08,19.983 23.1,0 42.45,-14.675 42.45,-40.279 v -9.055 l -32.15,5.621 c -23.4,4.059 -38.38,7.181 -38.38,23.73 z"
     id="path2"
     style="fill:#ffffff;fill-opacity:1" />
</svg>
