<svg width="171" height="43" viewBox="0 0 171 43" fill="none" xmlns="http://www.w3.org/2000/svg">
<path d="M164.987 31.3355H160.83L154.877 17.2814H156.983L162.908 31.3074H162.937L168.918 17.2814H170.996L164.987 31.3355Z" fill="#1C1C1C"/>
<path d="M151.173 14.0495C150.415 14.0495 149.797 13.4593 149.797 12.6722C149.797 11.8852 150.415 11.2949 151.173 11.2949C151.931 11.2949 152.521 11.9133 152.521 12.6722C152.521 13.4311 151.959 14.0495 151.173 14.0495ZM150.218 31.336V17.3101H152.184V31.336H150.218Z" fill="#1C1C1C"/>
<path d="M141.046 15.0055C141.046 16.9168 141.889 17.2822 144.107 17.2822H147.449V19.0812H141.075V26.5579C141.075 28.1039 141.664 29.4531 143.433 29.4531H147.449V31.3363H143.125C140.513 31.3363 139.137 29.5655 139.137 26.7547V19.0812H136.16V17.2822H142.394C139.951 17.2822 139.109 16.3547 139.109 14.612V11.6606H141.046V15.0055Z" fill="#1C1C1C"/>
<path d="M119.854 23.8025V31.3355H117.916V17.3095H119.854V23.1841C119.854 18.2652 124.572 16.8598 127.127 16.8598C129.262 16.8598 133.811 17.4782 133.811 23.1279V31.3355H131.873V23.8025C131.873 20.2609 129.795 18.7149 126.734 18.7149C123.589 18.7149 119.854 20.1204 119.854 23.8025Z" fill="#1C1C1C"/>
<path d="M107.808 31.7017C103.034 31.7017 100.03 29.0876 100.03 24.3092C100.03 19.2779 102.81 16.8324 107.696 16.8324C112.611 16.8324 115.559 19.4184 115.559 24.3373V25.1243H102.08C102.08 28.1038 104.186 29.9027 107.808 29.9027C111.038 29.9027 112.891 28.7784 113.453 26.6141H115.335C114.661 30.2119 111.993 31.7017 107.808 31.7017ZM102.051 23.5222H113.537C113.537 20.4865 111.122 18.6595 107.724 18.6595C104.41 18.6595 102.051 20.0087 102.051 23.5222Z" fill="#1C1C1C"/>
<path d="M82.0866 24.365C82.0866 19.6991 85.4285 17.0569 89.9498 17.0569C93.6848 17.0569 97.8129 18.6872 97.8691 22.9596H95.8752C95.454 19.8115 92.6457 18.9401 90.2587 18.9401C85.7093 18.9401 84.0524 21.4699 84.0524 24.365C84.0524 27.2602 85.5689 29.8461 90.1744 29.8461C92.5334 29.8461 95.3697 28.9748 95.8752 25.8548H97.8691C97.7848 30.2115 93.5724 31.7294 90.0902 31.7294C85.3442 31.7294 82.0866 29.1996 82.0866 24.365Z" fill="#1C1C1C"/>
<path d="M65.7804 23.8025V31.3355H63.8427V17.3095H65.7804V23.1841C65.7804 18.2652 70.4983 16.8598 73.0538 16.8598C75.1881 16.8598 79.7375 17.4782 79.7375 23.1279V31.3355H77.7998V23.8025C77.7998 20.2609 75.7217 18.7149 72.6607 18.7149C69.5154 18.7149 65.7804 20.1204 65.7804 23.8025Z" fill="#1C1C1C"/>
<path d="M59.5312 31.3363V11.6606H61.469V31.3363H59.5312Z" fill="#1C1C1C"/>
<path d="M23.828 11.5114C23.2887 10.5954 23.9492 9.44008 25.0122 9.44008H42.3784C42.8652 9.44008 43.3156 9.69759 43.5626 10.117L47.2236 16.3351C47.763 17.2511 47.1025 18.4064 46.0395 18.4064H28.6732C28.1865 18.4064 27.736 18.1489 27.4891 17.7294L23.828 11.5114Z" fill="#1C1C1C"/>
<path d="M20.7428 0.954547C20.3017 -0.0126756 18.9765 -0.134302 18.3668 0.736481L8.40592 14.9617C8.12671 15.3604 8.07929 15.8771 8.28125 16.32L11.275 22.8853C11.7161 23.8526 13.0413 23.9742 13.651 23.1034L23.6119 8.87823C23.8911 8.4795 23.9385 7.96282 23.7365 7.51993L20.7428 0.954547Z" fill="#1C1C1C"/>
<path d="M23.5877 31.4635C24.1271 32.3796 23.4666 33.5349 22.4035 33.5349L5.03731 33.5349C4.55054 33.5349 4.10009 33.2774 3.85312 32.8579L0.192088 26.6399C-0.347262 25.7238 0.313217 24.5685 1.37627 24.5685H18.7425C19.2293 24.5685 19.6797 24.826 19.9267 25.2455L23.5877 31.4635Z" fill="#1C1C1C"/>
<path d="M26.673 42.0204C27.114 42.9876 28.4392 43.1092 29.049 42.2385L39.0098 28.0133C39.289 27.6145 39.3364 27.0979 39.1345 26.655L36.1407 20.0896C35.6997 19.1224 34.3745 19.0007 33.7647 19.8715L23.8039 34.0967C23.5247 34.4954 23.4772 35.0121 23.6792 35.455L26.673 42.0204Z" fill="#1C1C1C"/>
</svg>
